#!OML:ASF I:\Actors\actors\Patient Classification 1\Patient 1\Session 1\Subject1.ASF
:FULLY-SPECIFIED
:DEGREES
1517
root 0.0135382 17.7095 7.63118 14.3718 6.5448 -5.70412
lowerback 9.04037 1.6537 11.8385
upperback 3.43228 3.34042 6.60949
thorax -1.18028 1.69466 -0.0157462
lowerneck -8.17206 -6.33375 -1.09269
upperneck 15.671 -8.97099 3.38692
head 6.30828 -4.11603 0.542139
rclavicle 3.18055e-015 1.74931e-014
rhumerus 44.0436 71.5574 -13.9431
rradius 64.5934
rwrist -22.2186
rhand 26.6447 -33.9896
rfingers 7.12502
rthumb 50.6667 -54.8551
lclavicle 3.18055e-015 1.74931e-014
lhumerus 36.9631 -76.8315 14.8092
lradius 81.5492
lwrist 63.3581
lhand -12.3598 -9.65154
lfingers 7.12502
lthumb 13.7103 19.8768
rfemur -17.4408 16.6466 18.6353
rtibia 11.8406
rfoot -14.234 -26.2128
rtoes 3.77876
lfemur -16.2853 -29.4294 -3.4334
ltibia 2.48157
lfoot -3.97044 34.4981
ltoes -12.1291
1518
root 0.0162931 17.7108 7.62821 14.2522 6.77186 -5.36398
lowerback 8.9063 1.74652 11.971
upperback 3.29367 3.47489 6.8283
thorax -1.24695 1.75438 0.133143
lowerneck -8.04116 -6.47217 -0.88768
upperneck 15.6229 -9.1498 3.17588
head 6.25481 -4.20885 0.435146
rclavicle 4.29375e-014 -3.18055e-014
rhumerus 41.4765 71.4375 -15.993
rradius 64.3076
rwrist -21.4892
rhand 27.4978 -33.5576
rfingers 7.12502
rthumb 51.4439 -53.9878
lclavicle 4.29375e-014 -3.18055e-014
lhumerus 47.9368 -75.3328 2.70213
lradius 83.5096
lwrist 63.6649
lhand -11.302 -9.57381
lfingers 7.12502
lthumb 14.7295 19.8829
rfemur -17.2627 16.5841 18.2846
rtibia 11.8795
rfoot -14.3787 -26.4295
rtoes 4.10037
lfemur -16.2219 -29.3596 -3.93446
ltibia 2.54123
lfoot -3.79483 34.072
ltoes -12.5969
1519
root 0.0206114 17.7111 7.62581 14.1259 6.97877 -4.99747
lowerback 8.69267 1.65045 11.7869
upperback 3.19286 3.32237 7.2395
thorax -1.28523 1.67339 0.682698
lowerneck -7.88057 -6.41338 -0.93081
upperneck 15.6638 -9.01632 2.87476
head 6.22421 -4.17143 0.364392
rclavicle 7.95139e-015 4.77083e-014
rhumerus 41.3114 71.8126 -15.6093
rradius 64.5294
rwrist -22.3145
rhand 26.1264 -35.2117
rfingers 7.12502
rthumb 50.1933 -56.3323
lclavicle 7.95139e-015 4.77083e-014
lhumerus 53.1231 -73.4236 -3.59411
lradius 85.0946
lwrist 63.5798
lhand -10.1193 -9.66427
lfingers 7.12502
lthumb 15.8688 19.7055
rfemur -17.0691 16.5384 17.9057
rtibia 11.9297
rfoot -14.5977 -26.6187
rtoes 4.52941
lfemur -16.1354 -29.1787 -4.50165
ltibia 2.62359
lfoot -3.71914 33.5535
ltoes -12.8949
1520
root 0.0252637 17.711 7.62356 14.0001 7.15624 -4.663
lowerback 8.5434 1.62548 11.7932
upperback 3.13702 3.27931 7.49467
thorax -1.27974 1.65066 0.956041
lowerneck -8.3001 -6.45874 -0.633484
upperneck 15.9965 -9.07206 2.48243
head 6.37057 -4.19871 0.17009
rclavicle -8.74653e-015 -3.49861e-014
rhumerus 39.0952 71.6781 -17.514
rradius 64.4476
rwrist -21.9722
rhand 26.6314 -35.4172
rfingers 7.12502
rthumb 50.6546 -56.2893
lclavicle -8.74653e-015 -3.49861e-014
lhumerus 58.0493 -71.0261 -9.53685
lradius 86.2604
lwrist 63.0155
lhand -9.07909 -10.0026
lfingers 7.12502
lthumb 16.8703 19.2846
rfemur -16.879 16.4972 17.5638
rtibia 11.9672
rfoot -14.7985 -26.7666
rtoes 4.86699
lfemur -16.0587 -28.8845 -5.04409
ltibia 2.73693
lfoot -3.6828 32.9687
ltoes -13.2185
1521
root 0.0290263 17.711 7.6215 13.8442 7.2909 -4.34075
lowerback 8.49406 1.62555 11.866
upperback 3.08829 3.28859 7.67006
thorax -1.30959 1.65283 1.10185
lowerneck -8.70445 -6.4858 -0.307847
upperneck 16.2493 -9.11993 2.17939
head 6.49183 -4.21591 0.00106995
rclavicle -9.54166e-015 5.40694e-014
rhumerus 36.5206 71.4134 -19.9813
rradius 64.2544
rwrist -21.7557
rhand 26.6444 -35.514
rfingers 7.12502
rthumb 50.6664 -56.3797
lclavicle -9.54166e-015 5.40694e-014
lhumerus 61.6485 -68.3939 -14.0249
lradius 87.08
lwrist 62.2537
lhand -8.36976 -10.458
lfingers 7.12502
lthumb 17.553 18.7696
rfemur -16.6607 16.4237 17.2525
rtibia 12.0052
rfoot -14.9293 -26.8825
rtoes 4.95187
lfemur -15.9316 -28.5962 -5.59757
ltibia 2.85042
lfoot -3.63811 32.4253
ltoes -13.5062
1522
root 0.0320696 17.7119 7.61989 13.6853 7.34316 -4.03694
lowerback 8.419 1.57877 11.7879
upperback 2.90001 3.2416 7.92836
thorax -1.49147 1.61739 1.41862
lowerneck -8.18319 -6.40183 -0.288871
upperneck 16.226 -8.96569 1.95857
head 6.3801 -4.16481 -0.0382489
rclavicle 2.06736e-014 7.63333e-014
rhumerus 34.1483 71.5305 -22.2682
rradius 64.1001
rwrist -21.7548
rhand 27.8488 -35.3071
rfingers 7.12502
rthumb 51.7629 -55.5525
lclavicle 2.06736e-014 7.63333e-014
lhumerus 63.1424 -66.2597 -16.2617
lradius 87.638
lwrist 61.6476
lhand -7.73959 -10.8177
lfingers 7.12502
lthumb 18.1594 18.3546
rfemur -16.4752 16.3653 16.9601
rtibia 12.1063
rfoot -15.0457 -26.9618
rtoes 4.99089
lfemur -15.7528 -28.3753 -6.12407
ltibia 2.91768
lfoot -3.58195 32.0081
ltoes -13.6766
1523
root 0.0351695 17.7129 7.61808 13.5717 7.28775 -3.75868
lowerback 8.34028 1.4945 11.599
upperback 2.81061 3.12357 8.22841
thorax -1.57821 1.55336 1.84854
lowerneck -8.10171 -6.2777 -0.357213
upperneck 16.398 -8.74109 1.64548
head 6.40587 -4.08348 -0.107278
rclavicle -3.02153e-014 -8.5875e-014
rhumerus 31.7908 71.1546 -24.7962
rradius 63.604
rwrist -20.162
rhand 34.3145 -32.6479
rfingers 7.12502
rthumb 57.5384 -48.7764
lclavicle -3.02153e-014 -8.5875e-014
lhumerus 63.3433 -64.0398 -17.0066
lradius 87.8163
lwrist 61.4696
lhand -6.17056 -10.421
lfingers 7.12502
lthumb 19.6684 18.604
rfemur -16.3986 16.3447 16.6648
rtibia 12.2503
rfoot -15.0702 -26.9972
rtoes 4.92374
lfemur -15.5966 -28.188 -6.5859
ltibia 2.97314
lfoot -3.60658 31.7048
ltoes -13.7312
1524
root 0.0379018 17.7136 7.61591 13.4973 7.12498 -3.50654
lowerback 8.2614 1.39762 11.3523
upperback 2.74893 2.97836 8.46769
thorax -1.63413 1.47802 2.24921
lowerneck -8.14553 -6.12392 -0.607835
upperneck 16.6756 -8.51787 1.71063
head 6.51352 -3.98055 -0.0362526
rclavicle -1.66979e-014 -9.54166e-015
rhumerus 29.8376 70.9338 -27.1469
rradius 63.2903
rwrist -19.5119
rhand 29.7285 -32.7814
rfingers 7.12502
rthumb 53.4627 -51.9763
lclavicle -1.66979e-014 -9.54166e-015
lhumerus 63.4519 -61.8194 -17.4915
lradius 87.4961
lwrist 61.2892
lhand -4.15055 -9.94743
lfingers 7.12502
lthumb 21.6094 18.8668
rfemur -16.3989 16.3611 16.379
rtibia 12.384
rfoot -14.9304 -27.0028
rtoes 4.46483
lfemur -15.456 -27.9165 -7.01018
ltibia 3.03447
lfoot -3.79701 31.4309
ltoes -13.4137
1525
root 0.0405825 17.7166 7.61358 13.4411 6.78122 -3.3163
lowerback 8.25939 1.35636 11.205
upperback 2.61489 2.93266 8.5654
thorax -1.79064 1.44669 2.43417
lowerneck -7.88369 -5.91955 -0.413428
upperneck 16.8755 -8.23632 1.49165
head 6.51003 -3.85036 -0.107257
rclavicle 6.36111e-015 3.18055e-015
rhumerus 26.9536 70.7677 -30.564
rradius 63.1311
rwrist -19.1352
rhand 27.6446 -33.1663
rfingers 7.12502
rthumb 51.5774 -53.5197
lclavicle 6.36111e-015 3.18055e-015
lhumerus 64.2416 -59.8123 -18.5475
lradius 86.8014
lwrist 60.6594
lhand -3.08619 -10.0543
lfingers 7.12502
lthumb 22.6312 18.639
rfemur -16.4559 16.4725 16.1333
rtibia 12.5138
rfoot -14.7183 -26.92
rtoes 3.88602
lfemur -15.2678 -27.6481 -7.37502
ltibia 3.0715
lfoot -4.05552 31.3597
ltoes -12.6969
1526
root 0.0454962 17.7204 7.61047 13.4464 6.3341 -3.17619
lowerback 8.35408 1.36332 11.1999
upperback 2.62923 2.95329 8.54846
thorax -1.82674 1.45485 2.41454
lowerneck -8.50072 -5.75443 0.125232
upperneck 17.3037 -8.03539 1.05733
head 6.71104 -3.74293 -0.341711
rclavicle 3.10104e-014 9.22361e-014
rhumerus 24.3354 70.154 -33.8407
rradius 63.0361
rwrist -18.739
rhand 27.3053 -33.3064
rfingers 7.12502
rthumb 51.2688 -53.8366
lclavicle 3.10104e-014 9.22361e-014
lhumerus 65.2024 -57.5019 -19.6049
lradius 85.8127
lwrist 59.823
lhand -2.75364 -10.258
lfingers 7.12502
lthumb 22.9504 18.396
rfemur -16.6011 16.6059 15.8986
rtibia 12.6238
rfoot -14.4723 -26.7534
rtoes 3.32968
lfemur -15.1292 -27.5234 -7.6438
ltibia 3.09594
lfoot -4.27884 31.5444
ltoes -11.849
1527
root 0.0547594 17.7214 7.60799 13.5392 6.0273 -2.97757
lowerback 8.28671 1.23832 11.1099
upperback 2.63721 2.76665 8.54922
thorax -1.79223 1.36351 2.48302
lowerneck -8.91212 -5.49955 0.614414
upperneck 17.5507 -7.69813 0.608323
head 6.82182 -3.5811 -0.551611
rclavicle 3.26007e-014 1.68569e-013
rhumerus 22.4767 69.7165 -36.4728
rradius 62.9803
rwrist -18.5135
rhand 26.9014 -33.3475
rfingers 7.12502
rthumb 50.9008 -54.0841
lclavicle 3.26007e-014 1.68569e-013
lhumerus 65.5705 -55.5035 -19.8378
lradius 84.4652
lwrist 58.901
lhand -2.42052 -10.4067
lfingers 7.12502
lthumb 23.27 18.2072
rfemur -16.7533 16.6698 15.5667
rtibia 12.6227
rfoot -14.2983 -26.6496
rtoes 2.91965
lfemur -15.1933 -27.4205 -7.91555
ltibia 3.21783
lfoot -4.35842 31.5912
ltoes -11.5535
1528
root 0.0646916 17.7211 7.60654 13.6306 5.74642 -2.80892
lowerback 8.08114 0.9336 10.8505
upperback 2.49764 2.33084 8.68548
thorax -1.85842 1.14326 2.8115
lowerneck -8.14705 -5.13532 0.55827
upperneck 17.3868 -7.14099 0.387642
head 6.62812 -3.34608 -0.539385
rclavicle 7.95139e-016 4.13472e-014
rhumerus 20.845 69.9652 -38.8854
rradius 62.9989
rwrist -18.3642
rhand 26.5336 -33.389
rfingers 7.12502
rthumb 50.5653 -54.3098
lclavicle 7.95139e-016 4.13472e-014
lhumerus 65.2294 -54.3784 -19.1692
lradius 82.7954
lwrist 58.0724
lhand -1.84234 -10.4066
lfingers 7.12502
lthumb 23.8246 18.1361
rfemur -16.8606 16.7764 15.2656
rtibia 12.5572
rfoot -14.2011 -26.563
rtoes 2.71924
lfemur -15.2798 -27.2447 -8.15025
ltibia 3.35633
lfoot -4.28759 31.5471
ltoes -11.9447
1529
root 0.0697602 17.7222 7.60291 13.686 5.20203 -2.78786
lowerback 8.0992 0.869116 10.8492
upperback 2.5818 2.23173 8.60868
thorax -1.77871 1.09716 2.73995
lowerneck -8.39689 -4.92984 0.837698
upperneck 17.4661 -6.89514 0.301934
head 6.68416 -3.21547 -0.60071
rclavicle -7.95139e-015 9.54166e-015
rhumerus 18.7079 69.4643 -41.8621
rradius 63.0145
rwrist -18.2893
rhand 26.1321 -33.4757
rfingers 7.12502
rthumb 50.1985 -54.5936
lclavicle -7.95139e-015 9.54166e-015
lhumerus 65.8421 -52.6948 -19.136
lradius 80.8675
lwrist 57.4528
lhand -1.51744 -10.2871
lfingers 7.12502
lthumb 24.1362 18.2146
rfemur -17.0229 17.0215 15.1318
rtibia 12.5365
rfoot -13.9834 -26.3441
rtoes 2.24566
lfemur -15.2071 -27.0529 -8.24167
ltibia 3.37644
lfoot -4.31449 31.8096
ltoes -12.1112
